<svg width="33" height="33" viewBox="0 0 33 33" fill="none" xmlns="http://www.w3.org/2000/svg">
<path d="M31.2103 0.489502H1.75117C1.04271 0.489502 0.470337 1.06187 0.470337 1.77033V31.2294C0.470337 31.9379 1.04271 32.5103 1.75117 32.5103H31.2103C31.9187 32.5103 32.4911 31.9379 32.4911 31.2294V1.77033C32.4911 1.06187 31.9187 0.489502 31.2103 0.489502ZM27.5119 9.83557H24.9542C22.9489 9.83557 22.5607 10.7882 22.5607 12.1891V15.2751H27.3478L26.7234 20.1062H22.5607V32.5103H17.5694V20.1102H13.3947V15.2751H17.5694V11.7128C17.5694 7.5781 20.0951 5.32464 23.7855 5.32464C25.5546 5.32464 27.0716 5.45673 27.5159 5.51676V9.83557H27.5119Z" fill="white"/>
</svg>
