<svg width="35" height="29" viewBox="0 0 35 29" fill="none" xmlns="http://www.w3.org/2000/svg">
<path d="M34.145 4.18529C32.9202 4.71364 31.5873 5.09388 30.2144 5.24198C31.6398 4.39517 32.7072 3.05736 33.2164 1.47954C31.8788 2.27521 30.4136 2.83315 28.8855 3.12861C28.2469 2.44587 27.4745 1.90197 26.6165 1.5308C25.7585 1.15963 24.8332 0.969143 23.8983 0.971208C20.1159 0.971208 17.0739 4.0372 17.0739 7.79964C17.0739 8.32798 17.1379 8.85632 17.242 9.36465C11.5783 9.06846 6.52705 6.36271 3.16887 2.22002C2.55697 3.26516 2.23632 4.45517 2.24026 5.66625C2.24026 8.03579 3.44505 10.1251 5.28224 11.3539C4.19955 11.3113 3.14222 11.0137 2.19624 10.4854V10.5694C2.19624 13.8876 4.54176 16.6374 7.66779 17.2698C7.08084 17.4222 6.47704 17.5002 5.87062 17.5019C5.42633 17.5019 5.00606 17.4579 4.58178 17.3979C5.44634 20.1036 7.96398 22.0689 10.9619 22.1329C8.6164 23.9701 5.67849 25.0508 2.48843 25.0508C1.91605 25.0508 1.38771 25.0308 0.839355 24.9668C3.86532 26.908 7.45565 28.0288 11.3222 28.0288C23.8743 28.0288 30.7428 17.63 30.7428 8.60416C30.7428 8.30797 30.7428 8.01178 30.7227 7.71558C32.0516 6.74295 33.2164 5.53817 34.145 4.18529Z" fill="white"/>
</svg>
