<svg width="42" height="41" viewBox="0 0 42 41" fill="none" xmlns="http://www.w3.org/2000/svg">
<path d="M36.1981 4.4895H6.73902C6.03056 4.4895 5.45819 5.06187 5.45819 5.77033V35.2294C5.45819 35.9379 6.03056 36.5103 6.73902 36.5103H36.1981C36.9066 36.5103 37.479 35.9379 37.479 35.2294V5.77033C37.479 5.06187 36.9066 4.4895 36.1981 4.4895ZM14.9564 31.7752H10.2053V16.4933H14.9564V31.7752ZM12.5828 14.4039C12.0382 14.4039 11.5057 14.2424 11.0529 13.9398C10.6 13.6372 10.2471 13.2072 10.0386 12.704C9.83022 12.2008 9.77568 11.6471 9.88194 11.1129C9.9882 10.5787 10.2505 10.0881 10.6356 9.70293C11.0207 9.3178 11.5114 9.05553 12.0456 8.94927C12.5798 8.84302 13.1335 8.89755 13.6366 9.10598C14.1398 9.31441 14.5699 9.66737 14.8725 10.1202C15.1751 10.5731 15.3366 11.1055 15.3366 11.6501C15.3326 13.1711 14.0998 14.4039 12.5828 14.4039ZM32.7439 31.7752H27.9968V24.3424C27.9968 22.5692 27.9648 20.2918 25.5272 20.2918C23.0576 20.2918 22.6774 22.221 22.6774 24.2143V31.7752H17.9343V16.4933H22.4892V18.5826H22.5533C23.1857 17.3819 24.7347 16.113 27.0482 16.113C31.8593 16.113 32.7439 19.2791 32.7439 23.3938V31.7752Z" fill="white"/>
</svg>
