<svg width="63" height="53" viewBox="0 0 63 53" fill="none" xmlns="http://www.w3.org/2000/svg">
<path d="M51.0873 26.5001H45.4109V35.0146H36.8964V40.691H51.0873V26.5001ZM17.0291 17.9856H25.5436V12.3092H11.3527V26.5001H17.0291V17.9856ZM56.7636 0.956543H5.67636C4.1709 0.956543 2.72709 1.55459 1.66257 2.61911C0.598044 3.68363 0 5.12743 0 6.63289V46.3674C0 47.8728 0.598044 49.3166 1.66257 50.3811C2.72709 51.4457 4.1709 52.0437 5.67636 52.0437H56.7636C58.2691 52.0437 59.7129 51.4457 60.7774 50.3811C61.842 49.3166 62.44 47.8728 62.44 46.3674V6.63289C62.44 5.12743 61.842 3.68363 60.7774 2.61911C59.7129 1.55459 58.2691 0.956543 56.7636 0.956543ZM56.7636 46.3674H5.67636V6.63289H56.7636V46.3674Z" fill="#03D6F3"/>
</svg>
