<svg width="32" height="39" viewBox="0 0 32 39" fill="none" xmlns="http://www.w3.org/2000/svg">
<path d="M14.8884 38.3167C15.2128 38.5483 15.6014 38.6729 16.0001 38.6729C16.3987 38.6729 16.7873 38.5483 17.1117 38.3167C17.6944 37.9046 31.389 28.0165 31.3334 15.6732C31.3334 7.21876 24.4545 0.339844 16.0001 0.339844C7.54565 0.339844 0.666734 7.21876 0.666734 15.6636C0.61115 28.0165 14.3057 37.9046 14.8884 38.3167ZM16.0001 4.17318C22.3423 4.17318 27.5001 9.33093 27.5001 15.6828C27.5403 24.1889 19.0897 31.8268 16.0001 34.3319C12.9123 31.8249 4.45982 24.1851 4.50007 15.6732C4.50007 9.33093 9.65782 4.17318 16.0001 4.17318Z" fill="white"/>
</svg>
