<svg width="62" height="63" fill="none" xmlns="http://www.w3.org/2000/svg"><path d="M13.286 17.783l-6.289-6.322 4.163-4.204 6.259 6.351-4.133 4.175zM33.952.19v8.946h-5.904V.19h5.904zm21.05 11.271l-6.288 6.322-4.133-4.175 6.259-6.351 4.163 4.204zM8.858 28.518v5.964H0v-5.964h8.857zm44.286 0H62v5.964h-8.857v-5.964zM13.286 56.846h35.428c1.566 0 3.068.628 4.176 1.747a5.995 5.995 0 011.729 4.217H7.381a5.99 5.99 0 011.73-4.217 5.875 5.875 0 014.175-1.747zM31 12.118c4.698 0 9.204 1.884 12.526 5.24a17.983 17.983 0 015.188 12.651v23.855H13.286V30.01c0-4.745 1.866-9.296 5.188-12.651A17.626 17.626 0 0131 12.118z" fill="#03D6F3"/></svg>